<svg xmlns="http://www.w3.org/2000/svg" xmlns:xlink="http://www.w3.org/1999/xlink" preserveAspectRatio="xMaxYMax slice" viewBox="0 0 500 500"><g transform="scale(0.6024096385542169)"><rect width="830" height="830" x="0" y="0" fill="#fff"/><rect width="92.222" height="92.222" x="0" y="0" fill="#fff"/><circle cx="23.055" cy="23.055" r="23.055" fill="#ff0057"/><circle cx="69.165" cy="23.055" r="23.055" fill="#000"/><circle cx="23.055" cy="69.165" r="23.055" fill="#000"/><circle cx="69.165" cy="69.165" r="23.055" fill="#ff0057"/><circle cx="138.33" cy="46.11" r="46.11" fill="#ff0057"/><circle cx="230.55" cy="46.11" r="46.11" fill="#000"/><circle cx="322.78" cy="46.11" r="46.11" fill="#000"/><circle cx="415" cy="46.11" r="46.11" fill="#000"/><circle cx="507.22" cy="46.11" r="46.11" fill="#000"/><circle cx="599.44" cy="46.11" r="46.11" fill="#ff0057"/><circle cx="691.67" cy="46.11" r="46.11" fill="#000"/><rect width="92.222" height="92.222" x="737.778" y="0" fill="#fff"/><circle cx="760.835" cy="23.055" r="23.055" fill="#000"/><circle cx="806.945" cy="23.055" r="23.055" fill="#000"/><circle cx="760.835" cy="69.165" r="23.055" fill="#000"/><circle cx="806.945" cy="69.165" r="23.055" fill="#ff0057"/><circle cx="46.11" cy="138.33" r="46.11" fill="#ff0057"/><rect width="92.222" height="92.222" x="92.222" y="92.222" fill="#fff"/><circle cx="115.275" cy="115.275" r="23.055" fill="#ff0057"/><circle cx="161.385" cy="115.275" r="23.055" fill="#ff0057"/><circle cx="115.275" cy="161.385" r="23.055" fill="#000"/><circle cx="161.385" cy="161.385" r="23.055" fill="#ff0057"/><rect width="92.222" height="92.222" x="184.444" y="92.222" fill="#fff"/><circle cx="207.495" cy="115.275" r="23.055" fill="#000"/><circle cx="253.615" cy="115.275" r="23.055" fill="#000"/><circle cx="207.495" cy="161.385" r="23.055" fill="#000"/><circle cx="253.615" cy="161.385" r="23.055" fill="#ff0057"/><circle cx="322.78" cy="138.33" r="46.11" fill="#000"/><rect width="92.222" height="92.222" x="368.889" y="92.222" fill="#fff"/><circle cx="391.945" cy="115.275" r="23.055" fill="#ff0057"/><circle cx="438.055" cy="115.275" r="23.055" fill="#ff0057"/><circle cx="391.945" cy="161.385" r="23.055" fill="#ff0057"/><circle cx="438.055" cy="161.385" r="23.055" fill="#ff0057"/><rect width="92.222" height="92.222" x="461.111" y="92.222" fill="#fff"/><circle cx="484.165" cy="115.275" r="23.055" fill="#ff0057"/><circle cx="530.275" cy="115.275" r="23.055" fill="#ff0057"/><circle cx="484.165" cy="161.385" r="23.055" fill="#ff0057"/><circle cx="530.275" cy="161.385" r="23.055" fill="#000"/><rect width="92.222" height="92.222" x="553.333" y="92.222" fill="#fff"/><circle cx="576.385" cy="115.275" r="23.055" fill="#000"/><circle cx="622.495" cy="115.275" r="23.055" fill="#ff0057"/><circle cx="576.385" cy="161.385" r="23.055" fill="#000"/><circle cx="622.495" cy="161.385" r="23.055" fill="#ff0057"/><circle cx="691.67" cy="138.33" r="46.11" fill="#000"/><rect width="92.222" height="92.222" x="737.778" y="92.222" fill="#fff"/><circle cx="760.835" cy="115.275" r="23.055" fill="#000"/><circle cx="806.945" cy="115.275" r="23.055" fill="#ff0057"/><circle cx="760.835" cy="161.385" r="23.055" fill="#000"/><circle cx="806.945" cy="161.385" r="23.055" fill="#000"/><rect width="92.222" height="92.222" x="0" y="184.444" fill="#fff"/><circle cx="23.055" cy="207.495" r="23.055" fill="#000"/><circle cx="69.165" cy="207.495" r="23.055" fill="#000"/><circle cx="23.055" cy="253.615" r="23.055" fill="#ff0057"/><circle cx="69.165" cy="253.615" r="23.055" fill="#ff0057"/><circle cx="138.33" cy="230.55" r="46.11" fill="#ff0057"/><circle cx="230.55" cy="230.55" r="46.11" fill="#ff0057"/><circle cx="322.78" cy="230.55" r="46.11" fill="#ff0057"/><rect width="92.222" height="92.222" x="368.889" y="184.444" fill="#fff"/><circle cx="391.945" cy="207.495" r="23.055" fill="#000"/><circle cx="438.055" cy="207.495" r="23.055" fill="#ff0057"/><circle cx="391.945" cy="253.615" r="23.055" fill="#ff0057"/><circle cx="438.055" cy="253.615" r="23.055" fill="#000"/><rect width="92.222" height="92.222" x="461.111" y="184.444" fill="#fff"/><circle cx="484.165" cy="207.495" r="23.055" fill="#000"/><circle cx="530.275" cy="207.495" r="23.055" fill="#ff0057"/><circle cx="484.165" cy="253.615" r="23.055" fill="#000"/><circle cx="530.275" cy="253.615" r="23.055" fill="#000"/><rect width="92.222" height="92.222" x="553.333" y="184.444" fill="#fff"/><circle cx="576.385" cy="207.495" r="23.055" fill="#000"/><circle cx="622.495" cy="207.495" r="23.055" fill="#000"/><circle cx="576.385" cy="253.615" r="23.055" fill="#ff0057"/><circle cx="622.495" cy="253.615" r="23.055" fill="#000"/><circle cx="691.67" cy="230.55" r="46.11" fill="#ff0057"/><circle cx="783.89" cy="230.55" r="46.11" fill="#000"/><rect width="92.222" height="92.222" x="0" y="276.667" fill="#fff"/><circle cx="23.055" cy="299.725" r="23.055" fill="#ff0057"/><circle cx="69.165" cy="299.725" r="23.055" fill="#ff0057"/><circle cx="23.055" cy="345.835" r="23.055" fill="#000"/><circle cx="69.165" cy="345.835" r="23.055" fill="#000"/><rect width="92.222" height="92.222" x="92.222" y="276.667" fill="#fff"/><circle cx="115.275" cy="299.725" r="23.055" fill="#ff0057"/><circle cx="161.385" cy="299.725" r="23.055" fill="#ff0057"/><circle cx="115.275" cy="345.835" r="23.055" fill="#ff0057"/><circle cx="161.385" cy="345.835" r="23.055" fill="#ff0057"/><rect width="92.222" height="92.222" x="184.444" y="276.667" fill="#fff"/><circle cx="207.495" cy="299.725" r="23.055" fill="#000"/><circle cx="253.615" cy="299.725" r="23.055" fill="#000"/><circle cx="207.495" cy="345.835" r="23.055" fill="#ff0057"/><circle cx="253.615" cy="345.835" r="23.055" fill="#000"/><circle cx="322.78" cy="322.78" r="46.11" fill="#000"/><rect width="92.222" height="92.222" x="368.889" y="276.667" fill="#fff"/><circle cx="391.945" cy="299.725" r="23.055" fill="#000"/><circle cx="438.055" cy="299.725" r="23.055" fill="#ff0057"/><circle cx="391.945" cy="345.835" r="23.055" fill="#000"/><circle cx="438.055" cy="345.835" r="23.055" fill="#000"/><rect width="92.222" height="92.222" x="461.111" y="276.667" fill="#fff"/><circle cx="484.165" cy="299.725" r="23.055" fill="#ff0057"/><circle cx="530.275" cy="299.725" r="23.055" fill="#000"/><circle cx="484.165" cy="345.835" r="23.055" fill="#ff0057"/><circle cx="530.275" cy="345.835" r="23.055" fill="#ff0057"/><rect width="92.222" height="92.222" x="553.333" y="276.667" fill="#fff"/><circle cx="576.385" cy="299.725" r="23.055" fill="#000"/><circle cx="622.495" cy="299.725" r="23.055" fill="#ff0057"/><circle cx="576.385" cy="345.835" r="23.055" fill="#ff0057"/><circle cx="622.495" cy="345.835" r="23.055" fill="#000"/><rect width="92.222" height="92.222" x="645.556" y="276.667" fill="#fff"/><circle cx="668.615" cy="299.725" r="23.055" fill="#ff0057"/><circle cx="714.725" cy="299.725" r="23.055" fill="#000"/><circle cx="668.615" cy="345.835" r="23.055" fill="#000"/><circle cx="714.725" cy="345.835" r="23.055" fill="#000"/><circle cx="783.89" cy="322.78" r="46.11" fill="#ff0057"/><circle cx="46.11" cy="415" r="46.11" fill="#000"/><circle cx="138.33" cy="415" r="46.11" fill="#000"/><rect width="92.222" height="92.222" x="184.444" y="368.889" fill="#fff"/><circle cx="207.495" cy="391.945" r="23.055" fill="#000"/><circle cx="253.615" cy="391.945" r="23.055" fill="#ff0057"/><circle cx="207.495" cy="438.055" r="23.055" fill="#ff0057"/><circle cx="253.615" cy="438.055" r="23.055" fill="#ff0057"/><rect width="92.222" height="92.222" x="276.667" y="368.889" fill="#fff"/><circle cx="299.725" cy="391.945" r="23.055" fill="#000"/><circle cx="345.835" cy="391.945" r="23.055" fill="#ff0057"/><circle cx="299.725" cy="438.055" r="23.055" fill="#ff0057"/><circle cx="345.835" cy="438.055" r="23.055" fill="#ff0057"/><rect width="92.222" height="92.222" x="368.889" y="368.889" fill="#fff"/><circle cx="391.945" cy="391.945" r="23.055" fill="#000"/><circle cx="438.055" cy="391.945" r="23.055" fill="#ff0057"/><circle cx="391.945" cy="438.055" r="23.055" fill="#ff0057"/><circle cx="438.055" cy="438.055" r="23.055" fill="#ff0057"/><circle cx="507.22" cy="415" r="46.11" fill="#000"/><circle cx="599.44" cy="415" r="46.11" fill="#ff0057"/><rect width="92.222" height="92.222" x="645.556" y="368.889" fill="#fff"/><circle cx="668.615" cy="391.945" r="23.055" fill="#000"/><circle cx="714.725" cy="391.945" r="23.055" fill="#ff0057"/><circle cx="668.615" cy="438.055" r="23.055" fill="#ff0057"/><circle cx="714.725" cy="438.055" r="23.055" fill="#ff0057"/><circle cx="783.89" cy="415" r="46.11" fill="#000"/><circle cx="46.11" cy="507.22" r="46.11" fill="#ff0057"/><rect width="92.222" height="92.222" x="92.222" y="461.111" fill="#fff"/><circle cx="115.275" cy="484.165" r="23.055" fill="#000"/><circle cx="161.385" cy="484.165" r="23.055" fill="#ff0057"/><circle cx="115.275" cy="530.275" r="23.055" fill="#ff0057"/><circle cx="161.385" cy="530.275" r="23.055" fill="#ff0057"/><rect width="92.222" height="92.222" x="184.444" y="461.111" fill="#fff"/><circle cx="207.495" cy="484.165" r="23.055" fill="#000"/><circle cx="253.615" cy="484.165" r="23.055" fill="#000"/><circle cx="207.495" cy="530.275" r="23.055" fill="#ff0057"/><circle cx="253.615" cy="530.275" r="23.055" fill="#ff0057"/><circle cx="322.78" cy="507.22" r="46.11" fill="#000"/><rect width="92.222" height="92.222" x="368.889" y="461.111" fill="#fff"/><circle cx="391.945" cy="484.165" r="23.055" fill="#ff0057"/><circle cx="438.055" cy="484.165" r="23.055" fill="#000"/><circle cx="391.945" cy="530.275" r="23.055" fill="#000"/><circle cx="438.055" cy="530.275" r="23.055" fill="#ff0057"/><circle cx="507.22" cy="507.22" r="46.11" fill="#ff0057"/><rect width="92.222" height="92.222" x="553.333" y="461.111" fill="#fff"/><circle cx="576.385" cy="484.165" r="23.055" fill="#000"/><circle cx="622.495" cy="484.165" r="23.055" fill="#ff0057"/><circle cx="576.385" cy="530.275" r="23.055" fill="#000"/><circle cx="622.495" cy="530.275" r="23.055" fill="#ff0057"/><rect width="92.222" height="92.222" x="645.556" y="461.111" fill="#fff"/><circle cx="668.615" cy="484.165" r="23.055" fill="#000"/><circle cx="714.725" cy="484.165" r="23.055" fill="#000"/><circle cx="668.615" cy="530.275" r="23.055" fill="#ff0057"/><circle cx="714.725" cy="530.275" r="23.055" fill="#ff0057"/><rect width="92.222" height="92.222" x="737.778" y="461.111" fill="#fff"/><circle cx="760.835" cy="484.165" r="23.055" fill="#000"/><circle cx="806.945" cy="484.165" r="23.055" fill="#000"/><circle cx="760.835" cy="530.275" r="23.055" fill="#ff0057"/><circle cx="806.945" cy="530.275" r="23.055" fill="#ff0057"/><rect width="92.222" height="92.222" x="0" y="553.333" fill="#fff"/><circle cx="23.055" cy="576.385" r="23.055" fill="#ff0057"/><circle cx="69.165" cy="576.385" r="23.055" fill="#ff0057"/><circle cx="23.055" cy="622.495" r="23.055" fill="#ff0057"/><circle cx="69.165" cy="622.495" r="23.055" fill="#000"/><rect width="92.222" height="92.222" x="92.222" y="553.333" fill="#fff"/><circle cx="115.275" cy="576.385" r="23.055" fill="#ff0057"/><circle cx="161.385" cy="576.385" r="23.055" fill="#000"/><circle cx="115.275" cy="622.495" r="23.055" fill="#000"/><circle cx="161.385" cy="622.495" r="23.055" fill="#ff0057"/><rect width="92.222" height="92.222" x="184.444" y="553.333" fill="#fff"/><circle cx="207.495" cy="576.385" r="23.055" fill="#000"/><circle cx="253.615" cy="576.385" r="23.055" fill="#ff0057"/><circle cx="207.495" cy="622.495" r="23.055" fill="#000"/><circle cx="253.615" cy="622.495" r="23.055" fill="#000"/><rect width="92.222" height="92.222" x="276.667" y="553.333" fill="#fff"/><circle cx="299.725" cy="576.385" r="23.055" fill="#000"/><circle cx="345.835" cy="576.385" r="23.055" fill="#ff0057"/><circle cx="299.725" cy="622.495" r="23.055" fill="#000"/><circle cx="345.835" cy="622.495" r="23.055" fill="#000"/><circle cx="415" cy="599.44" r="46.11" fill="#000"/><circle cx="507.22" cy="599.44" r="46.11" fill="#000"/><circle cx="599.44" cy="599.44" r="46.11" fill="#ff0057"/><circle cx="691.67" cy="599.44" r="46.11" fill="#000"/><circle cx="783.89" cy="599.44" r="46.11" fill="#ff0057"/><circle cx="46.11" cy="691.67" r="46.11" fill="#000"/><rect width="92.222" height="92.222" x="92.222" y="645.556" fill="#fff"/><circle cx="115.275" cy="668.615" r="23.055" fill="#000"/><circle cx="161.385" cy="668.615" r="23.055" fill="#ff0057"/><circle cx="115.275" cy="714.725" r="23.055" fill="#000"/><circle cx="161.385" cy="714.725" r="23.055" fill="#ff0057"/><rect width="92.222" height="92.222" x="184.444" y="645.556" fill="#fff"/><circle cx="207.495" cy="668.615" r="23.055" fill="#ff0057"/><circle cx="253.615" cy="668.615" r="23.055" fill="#ff0057"/><circle cx="207.495" cy="714.725" r="23.055" fill="#000"/><circle cx="253.615" cy="714.725" r="23.055" fill="#000"/><circle cx="322.78" cy="691.67" r="46.11" fill="#000"/><rect width="92.222" height="92.222" x="368.889" y="645.556" fill="#fff"/><circle cx="391.945" cy="668.615" r="23.055" fill="#000"/><circle cx="438.055" cy="668.615" r="23.055" fill="#ff0057"/><circle cx="391.945" cy="714.725" r="23.055" fill="#ff0057"/><circle cx="438.055" cy="714.725" r="23.055" fill="#000"/><circle cx="507.22" cy="691.67" r="46.11" fill="#ff0057"/><rect width="92.222" height="92.222" x="553.333" y="645.556" fill="#fff"/><circle cx="576.385" cy="668.615" r="23.055" fill="#ff0057"/><circle cx="622.495" cy="668.615" r="23.055" fill="#ff0057"/><circle cx="576.385" cy="714.725" r="23.055" fill="#000"/><circle cx="622.495" cy="714.725" r="23.055" fill="#000"/><circle cx="691.67" cy="691.67" r="46.11" fill="#ff0057"/><circle cx="783.89" cy="691.67" r="46.11" fill="#000"/><circle cx="46.11" cy="783.89" r="46.11" fill="#000"/><circle cx="138.33" cy="783.89" r="46.11" fill="#000"/><circle cx="230.55" cy="783.89" r="46.11" fill="#ff0057"/><circle cx="322.78" cy="783.89" r="46.11" fill="#000"/><circle cx="415" cy="783.89" r="46.11" fill="#000"/><circle cx="507.22" cy="783.89" r="46.11" fill="#000"/><rect width="92.222" height="92.222" x="553.333" y="737.778" fill="#fff"/><circle cx="576.385" cy="760.835" r="23.055" fill="#000"/><circle cx="622.495" cy="760.835" r="23.055" fill="#000"/><circle cx="576.385" cy="806.945" r="23.055" fill="#ff0057"/><circle cx="622.495" cy="806.945" r="23.055" fill="#000"/><rect width="92.222" height="92.222" x="645.556" y="737.778" fill="#fff"/><circle cx="668.615" cy="760.835" r="23.055" fill="#000"/><circle cx="714.725" cy="760.835" r="23.055" fill="#000"/><circle cx="668.615" cy="806.945" r="23.055" fill="#ff0057"/><circle cx="714.725" cy="806.945" r="23.055" fill="#ff0057"/><circle cx="783.89" cy="783.89" r="46.11" fill="#000"/></g></svg>